# xmcd
#
# Track frame offsets:
#	150
#	12557
#	19185
#	23827
#	32390
#	40790
#	46900
#	56720
#	63675
#	75707
#	86705
#	97305
#	111362
#	118002
#	129785
#	140422
#	147910
#
# Disc length: 2077 seconds
#
# Revision: 1
# Processed by: cddbd v1.5.1PL0 Copyright (c) Steve Scherf et al.
# Submitted via: CDex 1.50Beta5
#
DISCID=ea081b11
DTITLE=日本女声合唱団 - 四季の癒し/中田喜直 Disc 2
DYEAR=2002
DGENRE=
TTITLE0=ボニージャックス/ちいさい秋みつけた
TTITLE1=島田祐子/森の夜あけ
TTITLE2=森田克子/おかあさん
TTITLE3=眞理ヨシコ/ひるねのうた
TTITLE4=中川順子/お月さんとぼうや
TTITLE5=眞理ヨシコ/しずかにしてね
TTITLE6=高木淑子/夕方のおかあさん
TTITLE7=高木淑子/もう春だ
TTITLE8=小牧まり/カーネーションに寄せて
TTITLE9=梓みちよ/おかあさん
TTITLE10=長谷川直子/心の中のオルゴール
TTITLE11=杉並児童合唱団/さわると秋がさびしがる
TTITLE12=大和田りつこ/ぶどうのふさ
TTITLE13=高木淑子/お濠の白鳥
TTITLE14=倍賞千恵子/あなたもわたしも
TTITLE15=日本女声合唱団/ぶらんこ
TTITLE16=東京レディース・シンガーズ/むこうむこう
EXTD=
EXTT0=
EXTT1=
EXTT2=
EXTT3=
EXTT4=
EXTT5=
EXTT6=
EXTT7=
EXTT8=
EXTT9=
EXTT10=
EXTT11=
EXTT12=
EXTT13=
EXTT14=
EXTT15=
EXTT16=
PLAYORDER=
